<svg width="23" height="23" viewBox="0 0 23 23" fill="none" xmlns="http://www.w3.org/2000/svg">
<path d="M20.2929 21.7071C20.6834 22.0976 21.3166 22.0976 21.7071 21.7071C22.0976 21.3166 22.0976 20.6834 21.7071 20.2929L17.7924 16.3782C18.3592 15.6764 18.8236 14.8955 19.1702 14.0588C19.6448 12.913 19.8891 11.6848 19.8891 10.4446C19.8891 9.20429 19.6448 7.97615 19.1702 6.83029C18.6956 5.68442 17.9999 4.64326 17.1229 3.76625C16.2459 2.88924 15.2047 2.19356 14.0588 1.71892C12.913 1.24429 11.6848 1 10.4446 1C9.20429 1 7.97615 1.24429 6.83029 1.71892C5.68442 2.19356 4.64326 2.88924 3.76625 3.76625C1.99505 5.53745 1 7.93971 1 10.4446C1 12.9494 1.99505 15.3517 3.76625 17.1229C5.53745 18.8941 7.93971 19.8891 10.4446 19.8891C12.6138 19.8891 14.7061 19.1429 16.3783 17.7925L20.2929 21.7071Z" stroke="white" stroke-width="2" stroke-linecap="round" stroke-linejoin="round"/>
</svg>
